<svg width="356" height="1041" viewBox="0 0 356 1041" fill="none" xmlns="http://www.w3.org/2000/svg">
<path d="M355.211 1030.97C355.001 1030.51 354.508 1030.18 354.171 1029.77C348.779 1023.18 344.206 1016.01 339.616 1008.87C333.517 999.388 326.616 990.581 317.931 983.364C312.824 979.12 307.696 974.924 303.103 970.131C298.935 965.782 295.31 960.978 291.876 956.032C286.376 948.105 277.723 943.864 270.529 937.927C259.436 928.772 248.048 919.967 237.667 909.987C233.421 905.905 230.066 901.125 228.011 895.537C225.017 887.392 225.597 878.791 225.007 870.363C224.507 863.23 225.483 856.056 224.469 848.896C222.869 837.592 219.986 826.455 219.871 814.955C219.796 807.364 219.299 799.796 221.385 792.274C223.556 784.443 225.056 776.428 226.86 768.495C227.081 767.524 227.553 766.761 228.42 766.135C232.51 763.18 236.945 761.078 241.963 760.284C244.732 759.846 247.223 760.39 249.438 762.159C252.004 764.206 254.452 766.38 256.616 768.848C262.234 775.26 269.178 779.471 277.327 781.96C284.388 784.117 291.629 783.896 298.823 784.021C307.392 784.168 315.985 783.777 324.368 785.984C327.073 786.697 329.643 787.595 331.117 790.565C333.474 795.32 336.283 799.886 339.848 803.839C343.983 808.424 348.9 811.876 355.494 812.642C352.333 807.953 349.056 803.579 346.324 798.889C344 794.897 341.08 790.829 341.618 785.919C342.143 781.126 342.046 776.384 341.821 771.616C341.489 764.586 340.882 757.606 336.367 751.723C334.538 749.34 332.657 746.997 330.773 744.656C322.511 734.397 312.587 726.63 299.387 723.804C298.869 723.694 298.264 723.748 298.035 723.183C297.739 722.454 298.329 722.042 298.789 721.641C304.228 716.922 307.904 710.877 311.574 704.807C314.917 699.279 317.331 693.27 320.68 687.733C322.677 684.429 324.478 680.945 325.608 677.157C326.922 672.76 328.32 668.364 330.06 664.123C332.059 659.247 333.694 654.111 337.818 650.296C331.966 652.825 326.036 653.903 319.783 653.577C314.313 653.292 308.827 653.314 303.346 653.241C288.095 653.038 275.338 658.725 264.741 669.567C261.529 672.853 258.385 676.225 254.348 678.592C253.226 679.249 252.193 680.166 251.341 681.155C242.702 691.178 239.914 702.615 242.013 715.731C243.237 723.377 243.097 731.275 238.564 738.267C235.625 742.799 232.627 747.295 229.802 751.897C227.813 755.137 225.794 758.458 225.45 762.356C224.25 775.949 219.301 788.771 217.478 802.692C214.874 797.62 212.619 792.698 208.522 789.427C202.475 784.6 201.415 778.228 201.415 771.237C201.415 761.961 200.622 752.849 195.626 744.658C191.554 737.982 187.305 731.415 180.662 726.954C176.12 723.904 171.551 720.919 167.164 717.628C162.106 713.834 157.228 709.479 151.033 707.696C139.994 704.521 132.702 697.129 127.076 687.639C126.13 686.043 125.389 684.324 124.511 682.684C124.203 682.108 123.69 681.64 123.002 682.091C122.415 682.476 122.749 683.022 122.98 683.5C123.48 684.537 123.996 685.567 124.476 686.614C128.212 694.749 131.414 703.014 132.74 711.983C133.923 719.99 134.4 728.181 137.704 735.772C138.9 738.52 140.088 741.294 140.957 744.155C143.879 753.775 148.627 762.352 155.249 769.897C157.567 772.539 161.19 772.997 163.929 774.904C168.28 777.932 172.943 779.881 178.19 780.945C181.844 781.686 185.59 781.614 189.165 782.629C193.899 783.973 199.386 783.629 203.224 786.983C211.239 793.986 217.145 802.344 217.59 813.594C217.733 817.203 218.192 820.814 218.741 824.389C220.328 834.708 221.723 845.027 222.107 855.492C222.583 868.475 220.493 881.701 225.611 894.435C224.398 894.095 224.156 893.156 223.749 892.445C218.876 883.93 215.074 874.734 209.812 866.568C201.692 853.969 195.428 840.368 187.346 827.773C182.105 819.604 178.067 810.666 172.289 802.801C167.951 796.894 163.513 791.061 159.069 785.233C152.26 776.306 146.594 766.561 139.323 757.957C133.362 750.905 128.449 743.068 124.712 734.674C119.969 724.022 116.128 712.971 111.536 702.247C107.705 693.298 102.807 684.86 98.0449 676.37C96.4473 673.52 95.1171 670.731 95.9614 667.103C97.4957 660.509 100.293 654.608 104.402 649.318C108.041 644.634 112.944 643.892 118.228 646.62C121.347 648.231 123.776 651.001 127.372 651.794C131.282 652.657 134.858 654.044 136.978 657.895C138.09 659.914 139.897 661.43 141.793 662.774C148.322 667.401 155.504 670.283 163.436 671.62C168.901 672.541 174.287 673.467 179.683 671.746C186.438 669.591 192.145 666.271 195.267 659.255C197.873 653.396 201.893 648.697 209.212 648.693C209.901 648.693 210.608 648.452 211.27 648.216C211.634 648.088 212.168 647.76 212.194 647.484C212.259 646.761 211.624 646.886 211.099 646.753C209.333 646.306 207.534 646.032 206.059 644.677C197.216 636.562 189.027 627.707 179.073 620.843C173.965 617.321 168.736 614.313 162.159 615.019C160.686 615.177 159.165 614.886 157.666 614.799C150.43 614.377 143.186 614.084 136.003 615.342C128.121 616.724 121.463 620.135 117.092 627.193C114.063 632.084 110.754 636.75 107.105 641.238C102.732 646.618 98.3434 652.104 96.11 658.902C95.1659 661.778 94.9939 664.898 93.2731 668.149C89.8094 660.613 86.3789 653.582 85.9152 645.651C85.2018 633.441 84.2699 621.2 81.9955 609.239C80.1527 599.546 77.8905 589.858 75.382 580.278C72.6438 569.824 74.6708 560.365 80.4722 551.466C83.7451 546.445 88.5657 543.08 93.0879 539.408C101.579 532.512 110.876 526.515 116.943 517.005C118.145 515.121 120.257 514.22 122.631 513.98C129.688 513.264 135.958 516.928 142.838 517.436C149.515 517.929 156.018 519.117 162.834 517.787C170.285 516.334 177.065 512.992 184.376 511.254C192.573 509.306 199.021 504.735 203.745 497.749C206.173 494.158 208.753 490.68 210.855 486.861C214.168 480.841 219.004 476.37 225.968 473.687C224.238 472.85 223.175 471.943 221.817 472.967C220.112 474.253 218.21 474.133 216.232 473.929C206.371 472.915 196.73 470.717 187.11 468.464C182.1 467.29 177.051 466.404 171.948 466.069C163.975 465.545 156.806 468.863 149.83 471.961C136.97 477.67 128.574 487.841 122.891 500.585C120.3 506.397 118.507 512.616 113.856 517.489C107.252 524.408 100.868 531.56 93.1444 537.239C86.4045 542.194 79.4004 546.767 74.7751 554.88C75.3332 548.353 76.6357 542.681 77.7418 536.98C80.1527 524.55 80.4855 511.85 82.842 499.394C84.4762 490.759 88.3771 484.646 96.4928 480.553C101.672 477.942 105.934 473.409 108.658 467.946C113.06 459.117 115.166 449.635 116.147 439.902C116.675 434.666 116.14 429.322 114.679 424.368C113.546 420.522 111.647 416.824 110.174 413.012C121.987 407.046 134.762 405.633 147.758 405.976C160.385 406.309 172.887 408.74 185.589 408.47C192.074 408.331 198.053 407.582 203.49 403.413C212.292 396.665 220.179 389.399 222.942 378.102C224.369 372.274 225.474 366.396 227.778 360.768C231.422 351.876 236.008 343.36 237.45 333.581C238.374 327.316 238.778 321.575 234.819 316.167C231.997 312.309 229.615 307.892 225.259 305.695C220.445 303.265 215.122 301.632 209.704 301.591C202.799 301.538 196.169 300.657 189.657 298.333C187.555 297.583 184.279 297.34 183.412 299.442C182.092 302.646 181.003 306.225 182.267 310.002C184.675 317.197 184.956 324.161 179.003 330.06C178.574 330.485 178.285 331.071 177.998 331.617C173.119 340.897 169.939 350.804 166.96 360.819C163.932 370.997 160.929 381.187 156.499 390.912C154.484 395.337 151.354 398.494 147.589 401.162C145.694 402.506 143.701 403.749 141.132 403.972C135.155 404.491 129.165 404.586 123.213 405.838C118.261 406.88 113.664 408.572 109.343 410.775C106.12 401.747 103.902 392.357 98.7938 383.999C98.4721 383.472 98.1869 382.934 97.9173 382.392C100.79 376.453 103.893 370.618 107.245 364.898C113.109 354.89 119.389 345.177 126.317 335.897C133.223 326.648 138.954 316.587 146.252 307.609C153.444 298.763 158.262 288.267 165.546 279.467C166.634 278.151 167.218 276.612 168.927 275.589C173.033 273.132 177.319 271.014 181.429 268.588C193.312 261.571 205.139 254.416 218.49 250.48C227.082 247.946 235.595 245.208 243.542 241.095C251.286 237.087 259.195 233.778 267.713 231.741C277.148 229.484 286.655 227.27 295.13 222.18C307.175 214.946 318.244 206.501 327.215 195.602C331.989 189.803 336.38 183.761 343.102 179.875C346.354 177.996 349.876 176.364 352.399 173.356C354.127 171.295 354.074 169.019 351.889 168.368C346.316 166.705 340.878 164.48 334.923 164.286C324.75 163.954 314.558 163.775 304.413 163.01C288.176 161.785 273.923 165.955 261.993 177.282C256.677 182.331 251.69 187.797 245.968 192.335C232.642 202.901 224.479 216.669 219.352 232.57C217.79 237.416 217.169 242.617 213.867 246.835C211.921 249.321 210.038 251.443 206.763 252.564C198.866 255.268 191.747 259.579 184.838 264.281C180.584 267.176 175.999 269.609 170.355 271.437C171.62 269.765 172.38 268.7 173.2 267.685C176.572 263.51 178.197 258.354 181.017 253.855C190.951 238.014 200.134 221.756 205.719 203.799C208.585 194.587 210.393 185.085 209.305 175.336C208.643 169.409 209.736 163.732 211.204 158.093C213.868 147.862 220.58 140.18 227.555 132.715C235.419 124.299 244.921 117.411 251.197 107.517C255.836 100.205 259.841 92.5892 262.794 84.3963C266.961 72.8396 270.297 61.3162 267.881 48.7489C266.925 43.7688 266.363 38.6411 266.189 33.4846C266.01 28.2039 266.82 22.8821 265.661 17.6301C265.302 15.9993 265.359 14.0956 263.347 13.5509C261.347 13.0095 260.043 14.4606 258.756 15.6587C258.184 16.1901 257.769 16.8968 257.313 17.5447C249.836 28.1673 242.548 38.9318 232.064 47.0083C229.78 48.7678 227.832 51.0365 225.989 53.2842C218.679 62.1993 215.576 73.2024 211.915 83.7406C206.613 99.0093 206.957 114.864 209.896 130.653C211.907 141.45 211.14 152.009 207.397 162.767C206.002 157.847 204.267 153.342 203.504 148.68C202.092 140.05 199.533 131.881 196.042 123.87C193.173 117.286 191.944 110.288 192.813 102.957C193.757 94.9944 195.463 87.0932 195.363 79.0356C195.261 70.8738 196.977 62.7862 194.857 54.5178C191.885 42.919 185.818 33.6666 176.317 26.6618C170 22.0045 163.9 17.0632 157.316 12.7321C154.067 10.5954 151.148 8.02826 147.33 6.95436C140.123 4.92748 139.54 6.09346 139.908 12.3472C139.965 13.3079 140.06 14.3053 140.37 15.2061C146.149 32.0402 148.351 49.4356 148.612 67.1417C148.668 70.9714 149.385 74.6846 150.286 78.4011C151.374 82.8919 154.015 86.7493 155.427 91.5109C152.011 89.5617 148.863 87.8443 145.794 85.9949C140.807 82.9907 135.416 80.5955 131.222 76.382C121.614 66.7268 116.85 54.398 112.367 41.9583C109.32 33.5057 108.596 24.2877 103.64 16.4375C99.2731 9.52041 93.6992 3.98448 86.2148 0.688443C82.508 -0.943489 81.1434 0.327887 81.0125 4.48149C80.8694 9.0356 83.0251 13.0516 83.9259 17.3595C85.7233 25.9429 86.278 34.7294 88.2828 43.284C89.1293 46.894 90.4939 50.1257 92.8981 52.9569C98.715 59.8075 105.174 66.049 112.155 73.1747C105.895 69.7888 100.235 67.5944 94.3726 65.8271C88.5202 64.0631 82.8908 61.4549 76.9652 60.0693C69.3964 58.2998 61.8299 58.4407 53.9395 59.9317C39.5908 62.6431 25.2821 65.5287 10.9856 68.4874C9.59991 68.7748 8.22639 69.1309 7.02485 69.9629C5.84438 70.7806 5.09439 71.7868 5.38285 73.3022C5.66354 74.78 6.59771 75.7252 8.04333 75.9116C12.8074 76.5228 17.3683 78.005 22.0303 79.0445C30.0938 80.8418 37.9178 83.5709 45.4199 86.8225C57.7793 92.181 69.5851 92.6003 81.6382 86.229C92.5021 80.4867 104.106 78.6662 116.395 79.8544C128.068 80.9826 138.364 85.732 148.686 90.6444C152.097 92.2675 156.114 93.9372 157.967 96.7916C164.438 106.765 174.54 112.095 183.761 118.576C191.278 123.86 197.613 130.092 199.418 139.418C201.221 148.738 203.9 157.828 205.953 167.062C209.227 181.784 206.591 196.223 201.246 209.98C193.122 230.885 181.153 249.772 168.875 268.436C167.926 269.879 167.343 269.47 166.677 268.183C161.301 257.792 158.802 247.026 162.814 235.575C167.341 222.652 173.959 210.54 177.38 197.161C178.951 191.019 181.388 185.07 181.889 178.699C182.597 169.705 182.243 160.718 181.537 151.713C180.398 137.162 174.918 124.547 165.527 113.515C161.238 108.475 154.766 106.455 149.859 102.248C148.609 101.176 147.023 100.43 145.491 99.7704C144.111 99.1769 142.86 99.4476 142.417 101.197C141.589 104.451 140.445 107.595 139.899 110.955C139.097 115.902 138.79 120.961 137.228 125.765C134.038 135.568 130.023 145.015 129.656 155.701C129.375 163.854 129.602 171.722 132.085 179.453C136.903 194.454 144.369 208.24 151.792 222.044C155.982 229.839 158.911 237.974 158.902 247.016C158.894 254.966 160.267 262.648 163.959 269.852C165.152 272.18 165.072 274.74 163.302 277.115C161.032 280.161 158.925 283.338 156.893 286.55C148.667 299.552 139.062 311.592 130.643 324.469C124.234 334.274 116.565 343.285 110.52 353.291C105.471 361.648 100.972 370.348 96.5749 379.095C94.9806 374.107 94.9151 368.698 94.5823 363.405C94.407 360.618 95.613 357.638 93.8456 354.933C93.6104 355.08 93.4795 355.117 93.4717 355.172C93.3985 355.691 93.3342 356.214 93.2898 356.736C92.7661 362.918 91.3815 368.783 87.4474 373.82C81.0125 382.058 76.3705 391.254 72.4563 400.936C71.3569 403.655 70.3872 406.41 69.4786 409.183C67.5303 401.59 66.7437 393.761 65.7053 385.998C64.142 374.311 64.3229 362.809 68.6498 351.538C72.1368 342.456 76.3661 333.897 82.5824 326.355C90.5627 316.673 98.7417 307.135 106.297 297.129C117.778 281.927 121.417 264.711 117.141 246.146C113.774 231.529 112.435 216.714 111.36 201.824C110.926 195.828 108.555 190.486 104.275 186.193C102.599 184.512 100.326 183.144 98.3489 185.746C95.4599 189.548 92.5353 193.425 91.1973 198.097C87.1833 212.113 80.0584 224.673 72.6361 237.01C65.9693 248.093 60.6284 259.578 57.2357 272.101C53.9672 284.166 51.1536 296.199 51.0959 308.799C51.0194 325.658 53.4236 341.951 60.8414 357.285C62.2016 360.098 63.0703 363.147 62.8717 366.274C62.4546 372.838 62.6565 379.366 63.4742 385.879C64.6224 395.024 65.7696 404.162 68.2748 412.986C66.594 418.474 65.0962 424.014 63.4154 429.503C60.4586 439.16 61.648 448.69 65.3491 457.788C69.1169 467.05 74.622 475.461 79.7178 484.048C82.2007 488.231 83.7395 492.234 81.7225 497.292C80.308 500.838 79.3317 504.703 79.1064 508.634C78.3098 522.529 76.4182 536.274 73.8365 549.951C70.7578 566.266 71.7884 582.415 76.5813 598.32C77.977 602.95 79.4837 607.557 79.9896 612.539C78.4618 610.574 76.1065 610.114 74.2159 608.892C70.8044 606.686 67.182 604.687 64.3651 601.753C58.1332 595.268 56.4812 587.167 56.8584 578.487C57.3322 567.609 58.1476 556.717 55.6092 545.961C54.4531 541.066 53.458 536.164 50.7997 531.708C44.4347 521.037 34.5483 514.153 24.835 507.082C17.3628 501.643 12.8817 494.493 11.8055 485.318C11.5914 483.494 10.7382 482.552 9.26929 481.843C8.75893 482.511 9.05405 483.129 9.18719 483.7C11.1498 492.062 10.6683 500.537 8.43941 508.582C6.04409 517.23 3.78079 525.751 3.39803 534.778C3.04855 543.012 2.05558 551.233 6.20718 558.897C7.80702 561.851 9.78186 564.637 11.081 567.712C14.963 576.896 20.639 584.624 28.9444 590.192C35.3161 594.463 42.573 596.269 50.1606 596.758C53.4724 596.972 56.6909 597.249 59.276 599.703C64.679 604.833 70.4294 609.488 77.1926 612.768C78.4064 613.357 79.3949 614.456 79.7277 615.699C80.4356 618.338 81.1523 621.044 81.2965 623.753C81.7935 633.047 83.6741 642.163 84.6071 651.396C85.0676 655.954 86.6119 660.1 88.6134 664.206C92.3068 671.782 97.2184 678.629 101.209 686.033C106.309 695.497 110.058 705.555 114.691 715.217C115.015 715.892 115.538 716.576 115.235 717.62C110.813 713.325 105.701 709.992 101.769 705.239C96.8722 699.318 91.8785 693.418 84.9866 689.577C80.3856 687.013 75.2422 685.943 70.3628 684.157C64.2053 681.903 58.182 679.55 51.1536 680.509C47.3127 681.033 43.8955 682.636 40.2143 683.118C33.9858 683.936 28.5706 686.801 23.102 689.397C16.7548 692.411 10.1103 693.104 3.30705 693.456C2.1166 693.517 0.0940544 692.61 0.00196925 694.21C-0.0790213 695.61 2.35957 695.602 3.3714 695.528C11.6358 694.921 17.5325 699.324 22.2766 705.032C31.3642 715.965 41.9728 724.466 55.8444 728.251C62.1284 729.965 68.5832 731.756 75.0813 729.226C80.9093 726.958 86.1071 723.718 90.4052 719.004C93.9444 715.121 98.4987 713.167 103.822 714.468C110.166 716.016 113.875 721.316 118.429 725.369C118.999 725.876 119.007 727.001 119.303 727.829C121.209 733.16 123.008 738.52 125.957 743.426C130.157 750.417 135.395 756.709 139.748 763.538C146.667 774.391 155.346 783.874 162.527 794.496C165.74 799.248 169.675 803.491 172.748 808.373C173.627 809.769 173.359 810.203 171.877 810.393C169.77 810.665 167.629 810.817 165.574 811.316C162.031 812.176 159.049 811.237 156.593 808.739C153.317 805.407 150.008 802.078 147.039 798.478C141.023 791.184 133.918 785.884 124.51 783.584C112.336 780.607 100.1 778.474 87.5483 779.228C76.2818 779.905 65.0596 781.473 53.8307 778.638C45.2524 776.471 37.0124 773.854 31.1434 766.651C30.7029 766.11 30.2658 765.226 29.4981 765.734C28.5816 766.341 28.6649 767.496 28.9799 768.414C30.1926 771.94 31.4685 775.513 33.8072 778.432C39.7617 785.862 44.4203 794.091 49.0323 802.359C53.5079 810.385 57.3311 819.174 65.277 824.284C75.8801 831.104 86.7118 837.959 99.4328 840.237C110.789 842.271 121.164 839.669 130.162 832.144C134.149 828.809 138.119 825.413 142.969 823.306C144.769 822.525 146.237 821.169 147.91 820.229C152.167 817.835 155.807 814.189 160.999 813.608C164.69 813.196 168.375 812.712 172.054 812.192C173.919 811.928 175.487 812.44 176.432 814.02C179.828 819.698 183.834 825.151 186.278 831.225C189.357 838.878 193.761 845.635 197.963 852.591C202.756 860.523 207.465 868.511 212.005 876.589C214.381 880.816 216.189 885.357 218.477 889.637C221.7 895.67 226.527 900.479 230.794 905.75C239.852 916.938 250.562 926.233 261.816 934.952C269.43 940.851 277.088 946.69 284.508 952.834C285.331 953.515 286.413 954.082 286.589 955.43C284.305 954.978 282.306 954.103 280.297 953.137C275.213 950.694 270.51 947.485 265.062 945.762C262.809 945.049 260.026 944.448 258.65 942.815C254.443 937.818 248.749 935.376 243.138 932.835C233.178 928.327 225.909 921.728 222.14 911.024C219.859 904.546 215.564 898.861 209.273 895.324C203.011 891.804 196.537 888.693 189.854 886.036C184.055 883.731 178.562 880.957 174.623 875.854C174.026 875.081 173.529 873.528 172.283 874.487C171.392 875.173 172.384 876.279 172.89 877.048C175.49 880.996 177.439 885.196 178.68 889.792C179.601 893.198 180.593 896.727 182.606 899.638C191.53 912.55 203.235 921.315 219.144 923.834C222.836 924.419 226.859 924.273 230.07 926.619C233.365 929.027 236.643 931.413 240.369 933.136C244.803 935.187 248.624 938.156 252.677 941.104C251.653 941.679 251.116 941.205 250.555 941.022C245.005 939.212 239.287 938.071 233.616 936.746C227.218 935.249 220.764 936.341 214.334 936.358C210.456 936.37 206.552 935.714 202.709 936.679C200.312 937.281 197.961 936.995 195.636 936.424C189.16 934.833 183.905 930.766 178.147 927.72C173.078 925.038 167.989 922.459 162.349 921.076C156.588 919.664 150.914 920.518 145.215 921.278C134.187 922.748 122.979 922.946 112.223 926.354C107.621 927.813 103.716 930.145 100.231 933.402C92.5764 940.558 86.0694 949.078 76.1775 953.584C69.6871 956.541 63.9024 960.57 58.7223 965.463C58.0611 966.087 56.651 966.541 57.0937 967.573C57.4598 968.425 58.8055 968.811 59.8251 968.711C65.7308 968.134 71.0906 970.635 76.6945 971.688C83.8394 973.032 89.9436 976.984 96.2742 980.356C103.598 984.258 111.259 987.601 119.81 986.345C128.97 984.999 138.274 984.974 147.322 982.442C163.164 978.01 177.584 971.869 185.165 955.828C186.184 953.672 187.049 951.424 188.261 949.381C191.366 944.143 195.535 940.167 201.919 939.512C207.731 938.917 213.563 938.309 219.395 938.2C226.363 938.07 233.327 938.589 240.368 940.245C232.393 943.411 227.909 948.718 228.166 957.379C228.177 957.762 227.924 958.209 227.673 958.532C225.67 961.117 223.63 963.625 221.25 965.933C211.485 975.396 209.255 985.677 215.132 996.987C219.535 1005.46 224.013 1014.32 231.974 1020.48C235.673 1023.35 239.314 1026.47 243.761 1027.84C252.576 1030.56 260.652 1034.52 267.885 1040.22C268.31 1040.56 268.658 1041.39 269.404 1040.78C270.036 1040.26 269.705 1039.67 269.368 1039.12C269.09 1038.67 268.853 1038.18 268.532 1037.76C263.932 1031.73 263.44 1024.96 264.946 1017.84C266.571 1010.16 269.499 1002.77 269.442 994.732C269.422 991.905 268.851 989.349 267.054 987.332C262.102 981.77 256.63 976.737 250.507 972.468C245.571 969.027 240.456 965.834 235.619 962.263C232.602 960.036 229.235 956.846 230.162 953.173C231.372 948.374 234.238 943.914 239.948 942.591C245.657 941.27 250.932 942.903 256.308 944.454C265.682 947.158 273.935 952.278 282.652 956.393C284.869 957.439 287.623 957.652 289.253 959.617C296.825 968.75 305.383 976.974 314.414 984.518C323.543 992.143 330.491 1001.44 337.166 1010.92C342.378 1018.33 346.852 1026.24 353.229 1032.78C353.936 1033.5 354.307 1035.5 355.544 1034.61C356.491 1033.93 355.754 1032.16 355.211 1030.97ZM300.546 782.162C295.593 782.743 290.819 781.493 286.214 780.126C280.361 778.387 274.189 778.027 268.498 775.703C263.804 773.787 260.405 770.433 257.025 766.1C264.87 767.252 271.607 764.862 278.521 763.756C289.969 761.924 301.429 761.072 312.011 767.363C319.199 771.636 325.166 777.108 328.503 785.508C319.167 782.414 309.999 781.054 300.546 782.162ZM304.339 726.973C315.671 730.801 323.476 739.019 331.287 747.695C340.741 758.198 340.97 770.516 340.086 783.09C339.614 789.787 342.453 794.882 345.297 800.232C346.963 803.369 349.72 805.86 351.224 810.057C342.277 804.374 335.844 797.625 332.193 788.374C327.605 776.751 319.96 767.89 308.344 762.806C297.315 757.977 286.29 759.87 275.151 762.628C267.792 764.45 260.247 766.153 252.973 761.91C251.474 761.036 250.385 759.43 248.42 759.476C248.585 758.331 249.891 758.829 250.223 757.878C249.186 756.977 247.892 758.271 246.745 757.481C253.55 751.192 257.805 742.944 263.696 735.968C265.744 733.543 268.228 732.302 271.392 733.048C279.43 734.942 286.444 732.816 293.106 728.214C296.43 725.918 300.489 725.672 304.339 726.973ZM249.646 686.392C251.784 683.542 254.634 681.406 257.272 679.054C261.748 675.065 266.027 670.85 270.566 666.936C280.629 658.259 292.241 653.928 305.657 654.693C311.468 655.025 317.31 654.871 323.112 655.293C326.193 655.517 328.972 654.469 332.656 653.725C328.36 660.413 326.83 667.432 324.573 674.153C321.923 682.048 317.101 688.815 313.888 696.357C309.841 705.858 303.682 713.531 296.271 720.593C290.29 726.291 283.861 730.332 275.538 731.196C271.941 731.57 268.416 730.924 265.066 730.172C258.545 728.711 252.446 729.556 246.352 731.769C245.872 731.943 245.372 732.062 244.546 732.306C249.822 722.733 253.051 712.266 261.927 705.336C252.499 710.404 248.737 719.684 244.474 728.689C245.075 722.26 245.305 716.037 244.031 709.847C242.24 701.144 244.396 693.388 249.646 686.392ZM231.887 752.221C234.733 748.063 237.625 743.916 240.138 739.557C243.478 733.761 248.957 732.278 254.899 731.743C257.683 731.493 260.524 731.882 264.158 732.01C258.762 736.151 256.822 741.749 253.6 746.442C251.534 749.451 249.187 752.133 246.367 754.444C244.708 755.804 242.953 756.752 240.836 757.313C236.204 758.542 232.24 761.246 227.813 763.984C228.87 759.634 229.524 755.674 231.887 752.221ZM199.311 781.229C192.107 777.049 185.992 771.788 181.375 764.87C184.06 772.997 190.527 777.654 197.101 782.363C186.331 779.745 175.349 779.558 165 774.225C152.478 767.773 147.609 756.815 143.029 745.141C140.491 738.67 137.451 732.329 136.296 725.383C135.312 719.461 134.563 713.497 133.491 707.592C132.849 704.052 131.786 700.587 130.912 697.089C135.952 704.289 144.043 706.612 151.441 710.093C156.417 712.434 160.895 715.675 165.013 719.273C168.591 722.399 172.757 724.537 176.646 727.134C192.793 737.917 200.918 752.645 199.175 772.336C198.914 775.305 198.695 778.292 199.311 781.229ZM112.097 642.778C119.01 637.559 129.106 644.927 131.834 651.022C124.352 650.558 119.742 643.496 112.097 642.778ZM117.742 629.024C122.817 620.222 131.15 617.067 140.592 616.334C149.137 615.671 157.709 616.4 166.26 616.806C171.698 617.064 175.679 620.475 179.886 623.423C188.616 629.542 196.009 637.15 203.672 644.46C206.318 646.984 206.277 646.978 202.839 648.095C198.493 649.508 195.266 652.089 194.053 656.731C191.987 664.639 182.114 671.214 174.173 670.928C164.139 670.566 154.35 668.497 145.625 663.115C142.299 661.062 139.041 658.492 137.473 654.968C136.518 652.82 134.625 651.924 133.6 650.089C132.397 647.936 130.92 645.925 129.467 643.923C125.751 638.803 119.957 637.338 114.179 639.828C112.764 640.438 111.14 640.564 109.68 640.896C112.624 637.262 115.316 633.233 117.742 629.024ZM127.113 495.75C131.86 485.999 139.463 478.953 148.949 474.12C161.565 467.691 174.621 465.285 188.53 470.52C193.592 472.425 199.232 472.75 204.566 473.984C208.697 474.941 212.895 475.329 217.702 475.832C211.456 480.743 208.513 487.459 204.707 493.526C199.306 502.133 191.993 507.872 182.078 510.272C176.315 511.666 170.608 513.241 165.051 515.362C160.904 516.945 156.573 516.911 152.211 516.261C149.685 515.884 147.123 515.597 144.573 515.556C140.968 515.498 137.633 514.534 134.333 513.22C130.401 511.654 126.331 511.104 121.26 512.17C127.046 506.486 133.549 504.035 140.323 502.041C133.236 501.988 127.499 505.592 121.219 509.252C122.472 504.1 125.03 500.026 127.113 495.75ZM184.828 309.616C183.909 307.396 184.006 304.881 184.553 302.546C185.201 299.777 187.364 299.379 189.761 299.947C192.165 300.517 194.572 301.134 196.902 301.947C200.856 303.327 204.94 302.721 208.962 303.062C217.356 303.772 225.516 305.34 230.854 312.957C231.292 313.581 232.043 314.077 231.794 314.943C221.303 309.226 211.865 311.612 202.955 318.53C201.302 319.814 200.377 321.65 199.059 323.184C194.58 328.399 188.896 332.415 184.121 338.72C184.241 332.014 184.15 326.39 185.306 320.821C186.086 317.072 186.372 313.353 184.828 309.616ZM148.562 402.876C156.031 398.29 159.259 390.806 161.914 383.038C165.291 373.157 168.422 363.193 171.641 353.258C173.99 346.008 177.005 339.034 180.322 332.184C180.785 331.228 181.257 330.302 182.56 329.588C182.369 333.534 182.868 337.337 181.065 340.862C180.701 341.572 180.366 342.165 181.095 342.704C181.763 343.198 182.254 342.6 182.676 342.18C188.981 335.881 195.927 330.2 201.31 323.012C206.16 316.538 219.117 311.663 226.618 314.535C233.499 317.17 237.901 323.224 235.744 333.569C233.837 342.712 229.744 350.95 226.393 359.484C224.234 364.98 223.155 370.661 221.683 376.295C217.814 391.106 207.916 400.644 193.898 405.604C187.586 407.837 180.518 406.973 173.868 406.038C165.268 404.828 156.683 403.883 148.019 404.073C147.475 403.263 148.232 403.078 148.562 402.876ZM223.956 226.378C228.803 213.181 235.869 201.549 248.291 193.907C252.455 191.345 255.787 187.725 258.696 183.79C269.085 169.735 283.369 163.98 300.418 164.429C311.991 164.734 323.554 165.454 335.123 165.904C340.434 166.112 345.329 167.97 350.345 169.387C352.134 169.892 351.685 170.723 350.838 171.797C348.306 175.009 344.818 176.997 341.438 179.074C333.692 183.835 327.524 190.218 322.413 197.613C318.022 203.966 311.62 207.974 305.87 212.794C294.344 222.454 280.237 226.256 266.344 230.302C254.2 233.839 242.541 238.342 231.247 243.96C225.938 246.6 220.304 248.464 213.891 250.088C219.334 242.664 221.051 234.291 223.956 226.378ZM209.568 113.964C209.314 102.723 210.496 91.7361 214.601 81.1668C216.171 77.1241 217.412 72.9539 219.022 68.929C222.381 60.5275 227.007 52.9946 234.145 47.1658C243.958 39.1515 251.266 28.9683 258.43 18.6774C258.681 18.3158 258.942 17.9607 259.205 17.608C260.168 16.3155 261.28 14.7035 262.975 15.2194C265.001 15.834 263.706 17.7544 263.762 19.1278C264.144 28.6709 264.904 38.1807 265.918 47.6795C266.755 55.5229 267.609 63.5595 265.014 71.1289C261.442 81.5496 258.292 92.2298 251.788 101.409C250.001 103.932 248.392 106.581 246.657 109.143C243.658 113.57 239.782 117.117 235.782 120.657C226.91 128.512 218.781 137.082 213.079 148.241C212.186 145.133 212.738 142.563 212.597 140.026C212.113 131.275 209.766 122.752 209.568 113.964ZM99.0867 78.4565C90.495 80.5001 81.8812 82.244 73.7034 86.0182C66.9712 89.1246 59.5389 88.3169 52.3341 86.5241C42.6085 84.1045 33.5942 79.5216 23.821 77.2806C19.1779 76.2155 14.5237 75.196 9.8695 74.1776C8.78667 73.9401 7.33772 74.2175 7.148 72.6532C6.94941 71.0246 8.35731 70.4322 9.52446 70.2958C17.2008 69.3949 24.4511 66.6114 32.0531 65.3634C40.8512 63.9189 49.5527 61.8454 58.3762 60.6184C65.9771 59.5612 73.6146 60.5286 80.9082 62.9027C92.3578 66.6303 103.373 71.4662 114.134 76.9999C109.047 77.2661 103.989 77.2906 99.0867 78.4565ZM107.079 65.6263C99.9033 58.5816 93.0013 51.427 89.9026 41.4956C88.0198 35.4583 87.2587 29.2279 86.6752 22.9852C86.1216 17.0488 84.1578 11.4552 82.8531 5.70517C82.5613 4.41937 82.3316 3.06479 82.9773 2.16395C83.7506 1.08339 85.2262 1.82558 86.1437 2.30152C93.1977 5.96588 98.8049 11.1135 102.775 18.1261C106.026 23.8705 107.361 30.1342 108.812 36.4323C112.641 53.0479 120.196 67.7619 131.643 80.4435C131.816 80.6354 131.932 80.8795 132.313 81.463C121.644 79.2875 114.262 72.6777 107.079 65.6263ZM174.918 109.411C171.568 107.304 168.033 105.407 165.385 102.324C155.386 90.6866 149.745 77.4636 150.172 61.8643C150.568 47.3943 148.319 33.3227 143.342 19.6803C142.204 16.5585 141.296 13.2802 141.703 9.80774C141.904 8.10259 142.529 7.39146 144.272 7.79306C147.638 8.56743 150.862 9.425 153.538 11.9555C158.61 16.7515 164.651 20.3193 170.3 24.3653C176.83 29.0437 183.264 33.9062 187.592 40.6469C192.297 47.9746 194.425 56.2219 193.953 65.1814C193.502 73.7615 192.559 82.2574 191.372 90.7465C189.853 101.613 189.907 112.414 193.168 123.545C186.656 118.758 181.303 113.424 174.918 109.411ZM149.279 211.987C142.627 200.668 135.83 189.353 133.286 176.312C131.061 164.908 130.558 153.386 134.054 141.967C135.541 137.106 137.709 132.569 139.66 127.927C141.561 123.398 141.945 118.73 141.935 113.916C141.928 110.208 142.242 106.509 143.973 103.089C144.725 101.601 145.54 101.261 147.114 102.127C159.554 108.968 169.487 118.33 175.216 131.434C178.375 138.663 179.643 146.492 179.939 154.456C180.28 163.662 179.872 172.838 178.854 181.958C178.267 187.206 176.619 192.317 174.897 197.339C170.564 209.976 166.06 222.554 161.044 234.94C160.922 235.243 160.755 235.527 160.259 236.52C158.806 226.767 153.703 219.515 149.279 211.987ZM58.9997 347.903C52.8411 329.766 51.7738 311.247 54.6961 292.396C57.0959 276.921 60.7704 261.802 68.0473 247.844C72.1279 240.015 76.9607 232.58 81.3697 224.92C86.0705 216.754 89.5287 208.044 92.6052 199.153C93.8722 195.493 95.5775 191.951 98.2424 189.021C100.796 186.213 103.581 186.479 105.164 189.85C107.084 193.934 108.843 198.117 108.999 202.743C109.465 216.578 111.321 230.187 114.619 243.667C116.611 251.804 117.84 260.11 116.506 268.668C115.28 276.539 112.529 283.505 107.979 290.07C104.454 295.155 100.922 300.219 97.3204 305.252C92.6008 311.847 86.8383 317.454 81.4119 323.337C74.0063 331.366 69.5318 340.686 66.625 350.98C65.8872 353.591 65.1361 356.198 64.2552 359.282C61.7778 355.475 60.3 351.733 58.9997 347.903ZM66.817 456.295C63.5918 447.926 62.5211 439.349 64.9686 430.368C68.9283 415.836 73.4127 401.516 79.9873 387.937C81.443 384.929 83.4056 382.135 85.3671 379.41C88.0065 375.743 90.7058 372.133 92.9003 367.211C93.2509 369.266 93.5882 370.56 93.677 371.873C94.1707 379.217 96.7934 385.817 100.692 391.95C102.882 395.394 103.896 399.293 104.729 403.142C105.621 407.267 106.807 411.258 108.819 414.882C113.874 423.993 114.274 433.706 113.421 443.744C112.637 452.964 110.612 461.744 105.635 469.662C102.214 475.104 96.738 478.186 91.5978 481.609C89.9403 482.713 88.5668 484.317 86.2591 485.015C87.5139 476.27 87.0002 467.802 85.4881 459.338C85.1674 468.474 86.0783 477.67 84.0291 487.141C77.9149 476.767 71.034 467.24 66.817 456.295ZM42.6307 593.786C35.1685 592.582 29.7677 588.326 24.6597 583.344C19.3055 578.122 14.6724 572.426 12.1816 565.197C11.5304 563.309 10.351 561.557 9.19495 559.896C4.87472 553.684 5.05556 546.746 5.01118 539.554C4.93574 527.279 8.10879 515.792 11.8133 504.337C12.7474 501.449 12.3214 498.44 12.7718 495.368C16.3232 504.602 24.6985 508.885 31.8645 514.301C39.0572 519.736 45.9369 525.547 50.1052 533.584C53.3126 539.769 54.6062 546.71 55.0145 553.787C55.506 562.299 55.4661 570.766 54.5519 579.241C53.9428 584.892 55.171 590.287 57.6184 595.896C52.4361 594.253 47.4813 594.569 42.6307 593.786ZM84.3453 705.145C89.6785 707.183 95.198 708.764 100.242 711.943C93.6947 712.363 89.8305 716.957 85.5335 720.826C76.2973 729.14 65.7929 729.797 54.5519 726.009C44.8363 722.734 36.5709 717.646 29.7555 709.583C24.6775 703.576 18.9549 697.651 10.9601 694.578C19.5662 693.988 26.3306 688.676 34.1068 686.351C41.2472 684.215 48.4254 681.677 56.0818 681.809C59.5156 681.868 62.6443 683.207 65.7818 684.353C71.6753 686.506 77.7684 688.112 83.4788 690.76C88.7299 693.195 92.8183 697.061 96.5272 701.408C99.6015 705.01 102.75 708.548 106.347 712.664C98.8593 709.27 92.1248 705.644 84.3453 705.145ZM155.817 813.035C151.114 815.821 147.202 818.333 143.112 820.514C137.41 823.555 132.024 827.073 126.823 830.872C118.969 836.608 110.421 838.912 100.639 837.691C93.0124 836.739 86.643 833.171 80.0739 829.775C75.696 827.51 70.9907 825.81 66.8158 823.236C60.6894 819.458 57.2934 813.28 53.8429 807.151C48.178 797.084 42.5764 786.956 35.4492 777.794C33.8727 775.767 32.5613 773.57 31.798 770.744C39.6796 776.555 48.2158 779.738 57.442 781.254C65.5599 782.587 73.497 782.839 81.8623 781.811C97.9073 779.839 114.013 781.315 129.461 786.679C135.779 788.872 140.766 793.251 144.853 798.468C148.411 803.009 152.089 807.389 157.095 811.427C150.274 811.095 144.081 810.404 137.954 808.887C143.316 811.421 149.158 812.154 155.817 813.035ZM177.499 881.375C177.705 881.475 178.165 881.572 178.44 881.849C184.297 887.77 192.392 889.265 199.641 892.305C205.725 894.856 210.51 898.458 214.514 903.688C219.121 909.705 222.628 916.26 225.933 923.388C200.062 920.3 183.501 906.826 177.499 881.375ZM193.787 940.024C187.05 944.927 185.309 952.633 181.168 958.745C173.851 969.545 163.32 975.657 150.902 978.764C138.961 981.752 126.943 984.51 114.535 984.19C108.654 984.038 102.973 982.31 97.9118 979.312C90.1666 974.724 81.9744 971.22 73.497 968.329C70.3927 967.271 67.1365 966.883 63.8392 967.021C62.8773 967.061 61.9065 967.163 60.8714 966.525C63.9579 962.346 68.0529 959.351 72.6261 957.381C84.2122 952.388 92.5198 943.419 101.212 934.842C104.723 931.378 108.798 928.957 113.681 927.609C125.733 924.28 138.186 924.206 150.43 922.486C162.25 920.826 171.28 926.689 180.497 932.227C184.827 934.829 188.951 937.626 194.167 938.156C186.52 939.167 178.963 939.112 171.386 938.532C178.584 940.895 185.967 941.016 193.787 940.024ZM247.461 972.655C252.792 976.441 258.071 980.271 262.657 984.992C266.834 989.294 266.052 994.492 265.81 999.716C265.425 1008.04 263.028 1016.09 262.606 1024.4C262.415 1028.16 262.803 1031.83 264.593 1035.42C256.665 1030.59 247.667 1028.27 239.573 1024.01C232.386 1020.23 226.961 1014.55 223.156 1007.3C221.482 1004.1 219.34 1001.16 217.432 998.087C210.455 986.855 213.358 975.392 222.18 967.53C224.456 965.502 226.44 963.306 228.167 960.83C228.522 960.322 228.696 959.338 229.677 960.244C235.032 965.199 241.567 968.468 247.461 972.655ZM332.035 1000.18C332.697 1000.98 333.358 1001.79 334.02 1002.59C332.813 1002.24 332.175 1001.42 332.035 1000.18Z" fill="url(#paint0_linear_84_1800)"/>
<defs>
<linearGradient id="paint0_linear_84_1800" x1="178" y1="0" x2="178" y2="1041" gradientUnits="userSpaceOnUse">
<stop stop-color="#448E8A"/>
<stop offset="1" stop-color="#132827" stop-opacity="0"/>
</linearGradient>
</defs>
</svg>
