<svg width="244" height="75" viewBox="0 0 244 75" fill="none" xmlns="http://www.w3.org/2000/svg">
<path d="M2 73L0.517933 72.7687C0.450374 73.2017 0.57553 73.6426 0.860508 73.9755C1.14549 74.3084 1.56179 74.5 2 74.5L2 73ZM240.732 73V74.5H241.827L242.161 73.4563L240.732 73ZM174.091 28.2293L172.915 29.1594L173.649 30.088L174.722 29.5901L174.091 28.2293ZM103.106 28.2293L102.467 29.5863L103.892 30.2576L104.493 28.8012L103.106 28.2293ZM36.1814 5.84398L36.4288 7.32343L36.1814 5.84398ZM2 73V74.5H240.732V73V71.5H2V73ZM240.732 73L242.161 73.4563C246.074 61.2046 241.296 43.8085 229.443 32.3818C217.442 20.8127 198.252 15.3738 173.46 26.8685L174.091 28.2293L174.722 29.5901C198.487 18.5716 216.326 23.904 227.361 34.5416C238.543 45.3216 242.808 61.5674 239.303 72.5437L240.732 73ZM174.091 28.2293C175.268 27.2992 175.268 27.2985 175.267 27.2977C175.267 27.2971 175.266 27.296 175.265 27.2948C175.263 27.2924 175.26 27.2892 175.257 27.285C175.25 27.2768 175.241 27.265 175.229 27.2497C175.204 27.2192 175.169 27.175 175.122 27.1176C175.029 27.0029 174.893 26.8358 174.715 26.6217C174.359 26.1935 173.836 25.5771 173.164 24.816C171.821 23.2942 169.877 21.1906 167.467 18.8535C162.663 14.193 155.945 8.54345 148.4 4.75761C140.862 0.975659 132.301 -1.03961 123.965 1.91832C115.616 4.88102 107.893 12.6892 101.72 27.6574L103.106 28.2293L104.493 28.8012C110.49 14.2614 117.726 7.31564 124.968 4.74559C132.224 2.17078 139.889 3.84401 147.054 7.43905C154.212 11.0302 160.677 16.4462 165.379 21.0069C167.722 23.2804 169.613 25.3263 170.915 26.8015C171.566 27.5388 172.069 28.1327 172.408 28.5402C172.578 28.7439 172.706 28.901 172.791 29.006C172.834 29.0585 172.866 29.098 172.886 29.1238C172.897 29.1367 172.904 29.1461 172.909 29.1521C172.911 29.1551 172.913 29.1572 172.914 29.1584C172.914 29.159 172.914 29.1593 172.915 29.1596C172.915 29.1596 172.915 29.1594 174.091 28.2293ZM103.106 28.2293L103.745 26.8723C96.1859 23.3116 89.6154 19.9076 83.6376 16.8465C77.6723 13.7918 72.2784 11.0684 67.1305 8.90751C56.7897 4.56672 47.3496 2.45546 35.934 4.36452L36.1814 5.84398L36.4288 7.32343C47.11 5.53719 55.9587 7.47152 65.9693 11.6737C70.9971 13.7842 76.2945 16.4567 82.2702 19.5167C88.2332 22.5703 94.853 25.9999 102.467 29.5863L103.106 28.2293ZM36.1814 5.84398L35.934 4.36452C29.2363 5.48459 23.7521 10.6133 19.3268 17.2193C14.8757 23.8639 11.3133 32.2724 8.54303 40.4679C5.76793 48.6777 3.76322 56.7482 2.45276 62.7597C1.79711 65.7675 1.31424 68.2645 0.994941 70.0117C0.835275 70.8854 0.71646 71.5718 0.63735 72.0412C0.597793 72.2759 0.568159 72.4564 0.548305 72.5789C0.538378 72.6401 0.530896 72.6869 0.52584 72.7187C0.523312 72.7346 0.52139 72.7468 0.520073 72.7551C0.519415 72.7593 0.518908 72.7625 0.518551 72.7648C0.518373 72.7659 0.518218 72.7669 0.518129 72.7675C0.518013 72.7682 0.517933 72.7687 2 73C3.48207 73.2313 3.48206 73.2313 3.4821 73.2311C3.48216 73.2307 3.48223 73.2302 3.48235 73.2294C3.4826 73.2279 3.48299 73.2254 3.48354 73.2219C3.48463 73.215 3.48632 73.2043 3.48862 73.1898C3.49321 73.1609 3.50022 73.1171 3.50966 73.0589C3.52854 72.9424 3.55715 72.7681 3.59563 72.5398C3.6726 72.0831 3.78904 71.4103 3.94607 70.551C4.26016 68.8323 4.73647 66.3689 5.38393 63.3987C6.67971 57.4545 8.65703 49.4991 11.3851 41.4286C14.1179 33.3438 17.5797 25.2178 21.8193 18.889C26.0847 12.5217 30.9576 8.2384 36.4288 7.32343L36.1814 5.84398Z" fill="#448E8A"/>
</svg>
