<svg width="24" height="24" viewBox="0 0 24 24" fill="none" xmlns="http://www.w3.org/2000/svg">
<path d="M11.25 2.083C11.0043 2.13811 10.7652 2.21959 10.537 2.326C6.553 4.188 4 9.395 4 13.856C4 18.096 7.183 21.58 11.25 21.965V2.083ZM12.75 21.965C16.817 21.58 20 18.097 20 13.857C20 13.4503 19.979 13.039 19.937 12.623L12.75 19.811V21.965ZM18.26 7.18C17.8763 6.46065 17.4278 5.77782 16.92 5.14L12.75 9.31V12.69L18.26 7.18ZM15.908 4.03C15.191 3.33289 14.3652 2.75734 13.463 2.326C13.2348 2.21959 12.9957 2.13811 12.75 2.083V7.189L15.908 4.03ZM18.936 8.624L12.75 14.811V17.689L16.125 14.314L19.5 10.939L19.632 10.807C19.456 10.0627 19.2233 9.33286 18.936 8.624Z" fill="black"/>
</svg>
