<svg width="1440" height="354" viewBox="0 0 1440 354" fill="none" xmlns="http://www.w3.org/2000/svg">
<path d="M170.386 129L0 266V366H1443V86.5L1295.23 238.5L1149.98 129L1092.18 186.5L704.16 2L481 169L390.53 149L313.127 206.5L170.386 129Z" fill="#1A3736"/>
<path d="M170.386 129L0 266V366H1443V86.5L1295.23 238.5L1149.98 129L1092.18 186.5L704.16 2L481 169L390.53 149L313.127 206.5L170.386 129Z" fill="url(#paint0_linear_59_338)" fill-opacity="0.2"/>
<path d="M170.386 129L0 266V366H1443V86.5L1295.23 238.5L1149.98 129L1092.18 186.5L704.16 2L481 169L390.53 149L313.127 206.5L170.386 129Z" stroke="#448E8A" stroke-opacity="0.2" stroke-width="3"/>
<defs>
<linearGradient id="paint0_linear_59_338" x1="138" y1="2" x2="893.5" y2="487.5" gradientUnits="userSpaceOnUse">
<stop stop-opacity="0"/>
<stop offset="1"/>
</linearGradient>
</defs>
</svg>
